<svg xmlns="http://www.w3.org/2000/svg" id="Warstwa_9" data-name="Warstwa 9" viewBox="0 0 1440 900"><defs><style>.cls-1{fill:url(#Gradient_bez_nazwy_16);filter:url(#luminosity-noclip);}.cls-2{fill:url(#Gradient_bez_nazwy_5);}.cls-3{fill:#096d6c;}.cls-4{mask:url(#mask);}.cls-5{fill:url(#Gradient_bez_nazwy_4);}.cls-6{fill:none;}</style><linearGradient id="Gradient_bez_nazwy_16" x1="672.31" x2="672.31" y1="803.11" y2="601.68" gradientUnits="userSpaceOnUse"><stop offset="0"/><stop offset=".85" stop-opacity=".47"/><stop offset="1" stop-opacity="0"/></linearGradient><linearGradient id="Gradient_bez_nazwy_5" x1="977.98" x2="977.98" y1="701.62" y2="137.24" gradientUnits="userSpaceOnUse"><stop offset=".12" stop-color="#096d6c" stop-opacity="0"/><stop offset=".91" stop-color="#096d6c"/></linearGradient><filter id="luminosity-noclip" width="1414.3" height="201.43" x="-34.84" y="601.68" filterUnits="userSpaceOnUse" color-interpolation-filters="sRGB"><feFlood flood-color="#fff" result="bg"/><feBlend in="SourceGraphic" in2="bg"/></filter><mask id="mask" width="1414.3" height="201.43" x="-34.84" y="601.68" maskUnits="userSpaceOnUse"><path d="M-34.84 601.68h1414.3V803.1H-34.84z" class="cls-1"/></mask><linearGradient id="Gradient_bez_nazwy_4" x1="664.17" x2="664.17" y1="650.57" y2="542.95" gradientUnits="userSpaceOnUse"><stop offset="0" stop-color="#096d6c" stop-opacity="0"/><stop offset=".16" stop-color="#096d6c" stop-opacity=".08"/><stop offset=".42" stop-color="#096d6c" stop-opacity=".31"/><stop offset=".76" stop-color="#096d6c" stop-opacity=".69"/><stop offset="1" stop-color="#096d6c"/></linearGradient></defs><path d="M606.25 137.84c50.42 36.14 108 42.88 164.93 48.85 137.62 14.4 275.5 13.8 413.22.3 31.86-3.1 63.56-8.2 94.52-16.5 24.56-6.6 48.48-15.3 70.8-33.3-2.66 23.3-4.8 44.2-7.5 65.1-1.6 12.3-.13 27.1-20.58 24.9-7.44-.8-8.42 7.4-9.47 12.8-2.17 11.2-8.64 13.8-19.38 14-23.6.4-47 3-70.6 3.4-11.6.2-13.8 4.3-13.3 15.2 2 51.8 1.6 51.8 52.4 51.8 9.1 0 18.4.9 27.4-.2 15-1.8 19.4 3.1 19.8 18.9.4 17.7-4.8 22.5-21.8 21-18.2-1.6-36.7.5-54.9-.7-13.8-.9-16 4.2-15 16.8 6.6 82.1 12.4 164.3 18.5 246.4 1.5 20.2 2.8 40.4 4.9 60.6 1 9.9-1.1 14.3-12.1 13.8-18.3-.8-36.7-1.2-54.9.1-14.6 1-17-5-17-17.9 0-100.1-1-200.2-.9-300.3 0-14.6-2.8-19.9-18.9-19.8q-159 1.2-317.9 0c-15.2-.1-18.2 4.4-18.2 18.6 0 100.1-1.3 200.1-1.2 300.2 0 15.7-4.6 20.2-19.7 19a313.42 313.42 0 0 0-49 0c-14.1 1.1-15.9-4.7-14.9-16.9 6.3-76.9 12.1-153.8 18-230.8 1.8-24.1 2.8-48.3 5.4-72.3 1.4-13.3-1.6-18.6-16.2-17.7-20.9 1.3-41.9-.1-62.8.5-19.7.5-10.3-13.9-11.6-22.1-1.3-8.5-3.4-18.5 12.2-17.7 22.8 1.1 45.8 0 68.7.4 9.2.2 14.5-1.3 14.5-12.3.1-17 7.9-37.6.8-49.8s-30-3.7-45.8-6.3a162.93 162.93 0 0 0-31.2-2.2c-13.3.46-23-2-25-17.4-.6-4.9-3-10.9-9.9-9.9-16.5 2.4-17.4-9-18.7-20.3l-8.1-68.8zm274 186.8h37.23c46.43 0 46 0 45.1-46-.2-11.12-3.47-14.53-14.44-14.58-33.3-.14-66.6-1.5-99.9-2-47.77-.74-47.18-.6-47.38 47-.06 13.53 4.56 16.28 16.7 15.77 20.83-.83 41.75-.2 62.65-.2zm194.8 0h33.23c48.34 0 48 0 47-49.37-.22-11-3-14.3-14.23-13.87-32.53 1.24-65.12 1-97.68 1.8-47.22 1.2-46.7 1.37-45.8 48.23.23 12 4.8 13.7 15 13.38 20.75-.6 41.6-.1 62.43-.1z" class="cls-2"/><path d="M622.3 220.32a183 183 0 0 0 1.53 42.68c.35 2.27 3.8 1.3 3.45-1a179.06 179.06 0 0 1-1.4-41.76c.18-2.3-3.4-2.28-3.6 0zm707.35-1.94q3 19 7.77 37.54c.57 2.23 4 1.28 3.45-1q-4.8-18.58-7.77-37.54c-.35-2.27-3.8-1.3-3.45 1z" class="cls-3"/><path d="M1343.57 254.9a4.82 4.82 0 0 0 .9.32 15.5 15.5 0 0 1 3.87 2.18 29.68 29.68 0 0 1 4.93 4.8c.46.54.9 1.1 1.34 1.7.2.27.2.27.5.07a35.4 35.4 0 0 1 5.7-3.12 20.5 20.5 0 0 1 5.4-1.58 10.18 10.18 0 0 1 3.4 0 5.6 5.6 0 0 1 3.8 2.47 8 8 0 0 1 1.2 3.3 15.53 15.53 0 0 1 0 3.85 30.52 30.52 0 0 1-2 7.8l-.4 1.1s-.1.3.2.4c1 .5 2 1 3 1.6a26 26 0 0 1 5.5 4.2 12 12 0 0 1 2.6 3.8 6 6 0 0 1 .4 3.6 6.2 6.2 0 0 1-1.2 2.4 11.17 11.17 0 0 1-3.1 2.6 24 24 0 0 1-6.8 2.6 33.4 33.4 0 0 1-3.8.6h-.2a.14.14 0 0 0-.2.1v.2a34.93 34.93 0 0 1 0 5.5 20.66 20.66 0 0 1-1.3 6.2 9.62 9.62 0 0 1-2 3.1 5.5 5.5 0 0 1-4.3 1.7h-.3l-1.4-.2a17.17 17.17 0 0 1-6.6-3.9 33.2 33.2 0 0 1-4.5-5c-.3-.3-.2-.3-.5-.1a36.65 36.65 0 0 1-4.32 2.5 22.38 22.38 0 0 1-5.84 2 12.66 12.66 0 0 1-2.75.2h-.3l-1.4-.2a5.35 5.35 0 0 1-2-1 6.1 6.1 0 0 1-2.1-3.1 13.38 13.38 0 0 1-.5-5.4 24.42 24.42 0 0 1 .76-4.3 35.12 35.12 0 0 1 1.7-4.8c.2-.3.2-.3-.2-.5a36.82 36.82 0 0 1-3.7-2.1 24.52 24.52 0 0 1-4.83-4 11.43 11.43 0 0 1-2.4-3.8 5.64 5.64 0 0 1 1-5.8 10.6 10.6 0 0 1 2.8-2.3 22 22 0 0 1 5.5-2.3 36.94 36.94 0 0 1 5.5-1.1c.3 0 .34 0 .3-.3a36 36 0 0 1 .1-6 21.74 21.74 0 0 1 1.27-5.7 10.53 10.53 0 0 1 1.84-3.1 5.6 5.6 0 0 1 4.36-2.1h.5zm9.95 42l1.56.17a.5.5 0 0 0 .46-.18 79.3 79.3 0 0 0 5.68-6.7c.54-.7 1.06-1.5 1.6-2.2a.54.54 0 0 0 .1-.6 82 82 0 0 0-4-10.7.5.5 0 0 0-.36-.3c-2.2-.6-4.42-1-6.66-1.4-1.56-.3-3.13-.4-4.7-.6a.48.48 0 0 0-.44.2q-1.7 1.8-3.3 3.7-2 2.4-3.9 5a.64.64 0 0 0-.1.6 94.85 94.85 0 0 0 3.92 10.6.6.6 0 0 0 .47.4c1.9.4 3.8.8 5.94 1.1 1 .1 2.4.3 3.7.5zm17-16c-.25.47-.5 1-.76 1.44a63.7 63.7 0 0 1-3.44 5.64.86.86 0 0 0-.13.8 65.62 65.62 0 0 1 1.6 8.07 1.55 1.55 0 0 1 0 .17c0 .14.1.16.2.15.7-.08 1.4-.18 2-.3a25.48 25.48 0 0 0 6.3-1.93 11.86 11.86 0 0 0 3-1.9 4.87 4.87 0 0 0 1.3-1.75 2.6 2.6 0 0 0 .1-1.5 5.8 5.8 0 0 0-1-2.3 15 15 0 0 0-3.1-3.2 30.74 30.74 0 0 0-5.7-3.5l-.4-.2c-.2-.1-.2.1-.3.1zm-9.56 33.24a2.73 2.73 0 0 0 1.88-.88 6.8 6.8 0 0 0 1.44-2.36 17 17 0 0 0 1-4.18 33.06 33.06 0 0 0 .12-6.2c0-.3-.06-.32-.32-.3-1.67.07-3.34.07-5 0-1.12 0-2.25-.14-3.37-.22a.56.56 0 0 0-.4.18 68 68 0 0 1-5.1 4.6l-1.2 1c-.1.1-.1.18 0 .3a26.24 26.24 0 0 0 6.8 6.58 10.47 10.47 0 0 0 2.7 1.25c.2.1.4.1.8.2a3.6 3.6 0 0 0 .8.1zm-30.2-8.37a6.7 6.7 0 0 0 .64 2.33 2.83 2.83 0 0 0 2 1.52 7.8 7.8 0 0 0 3 0 19.12 19.12 0 0 0 4.8-1.64 33.33 33.33 0 0 0 4.3-2.5c.26-.17.27-.14.08-.44a64.3 64.3 0 0 1-4-7.27.62.62 0 0 0-.46-.37c-1.7-.43-3.35-.94-5-1.5-1-.36-2-.74-3-1.14-.23-.1-.23-.1-.33.13q-.6 1.3-1.1 2.8a28.7 28.7 0 0 0-1 3.9 15.38 15.38 0 0 0-.1 4.1zm40.93-40.18a6.1 6.1 0 0 0-.6-1.9 2.74 2.74 0 0 0-1.9-1.6 7.5 7.5 0 0 0-3.1 0 18.66 18.66 0 0 0-4.7 1.5 33.6 33.6 0 0 0-4.8 2.6h-.1c-.2.1-.2.1-.1.3l1 1.6q1.7 2.7 3.1 5.7a.62.62 0 0 0 .4.3c1.4.4 2.9.8 4.3 1.3q1.7.6 3.5 1.3c.2.1.2.1.3-.2a33 33 0 0 0 1.2-3.2 25.72 25.72 0 0 0 1-3.9 14.16 14.16 0 0 0 .1-4.3zm-34.7 5.3v.4s0 .2.2.2l1.4-.1c1.7-.1 3.4 0 5.2 0 .6 0 1.2 0 1.8.1a.45.45 0 0 0 .4-.2q1.5-1.6 3.1-3t3.1-2.6c.1-.1.1-.2 0-.4a28.53 28.53 0 0 0-6.3-6.3 10.78 10.78 0 0 0-2.9-1.5 4.73 4.73 0 0 0-1.9-.3 2.5 2.5 0 0 0-1.4.6 6 6 0 0 0-1.6 2.1 16 16 0 0 0-1.2 4.1 31.35 31.35 0 0 0-.3 6.6zm-15.3 11.2a7.15 7.15 0 0 0 1.3 2.4 17.66 17.66 0 0 0 3.4 3.2 32.27 32.27 0 0 0 4.9 3c.2.1.2.2.4-.2a64 64 0 0 1 4.3-7.1.75.75 0 0 0 .1-.7 65.43 65.43 0 0 1-1.7-7.9 1.48 1.48 0 0 1 0-.2c0-.2-.1-.2-.3-.2-.6.1-1.2.1-1.7.2a27.82 27.82 0 0 0-6 1.6 13.55 13.55 0 0 0-3.3 1.8 5.65 5.65 0 0 0-1.4 1.5 2.67 2.67 0 0 0-.4 1 3.1 3.1 0 0 0 0 1.2zm12.5 10a57.7 57.7 0 0 0 5.8 2c-1-2.5-1.9-4.9-2.8-7.4a44 44 0 0 0-3.2 5.3zm13.8 11.5a60.45 60.45 0 0 0 4.6-4c-2.6-.4-5.1-.8-7.7-1.3a57.84 57.84 0 0 0 2.9 5.3zm17-6.2c-.3-2-.7-4-1.2-6.1-1.6 2.1-3.3 4-5 6a57.44 57.44 0 0 0 6 0zm-8-24.1v-.3q-1.3-2.5-2.8-4.8c-.1-.1-.2-.2-.3-.1-1.5 1.2-3 2.4-4.3 3.7v.1c2.3.3 4.8.7 7.3 1.2zm-15.7 1h-3.7c-.5 0-.5 0-.4.5.2 1.7.5 3.4 1 5.1l.1.3c1.5-2 3.1-4 4.8-5.9v-.1c-.8-.1-1.4-.1-2-.1zm23.7 10.2c1-1.6 1.8-3.1 2.6-4.7l.1-.2c.1-.2 0-.2-.1-.3l-1.1-.4c-1.3-.5-2.7-1-4-1.4a1.08 1.08 0 0 0-.5-.1c.5 1.2 1 2.3 1.4 3.5l1.2 3.6.1-.3z" class="cls-3"/><path d="M1350.25 291.6a5.87 5.87 0 1 0-4.86-6.7 5.86 5.86 0 0 0 4.8 6.7zM628.2 260.75a4.82 4.82 0 0 0 .9.33 15.5 15.5 0 0 1 3.87 2.18 29.68 29.68 0 0 1 4.93 4.8c.46.54.9 1.1 1.34 1.7.2.27.16.27.45.07a35.4 35.4 0 0 1 5.6-3.12 20.5 20.5 0 0 1 5.4-1.5 10.18 10.18 0 0 1 3.3 0 5.6 5.6 0 0 1 3.8 2.5 8 8 0 0 1 1.1 3.3 15.53 15.53 0 0 1 0 3.9 30.52 30.52 0 0 1-2.1 7.8c-.2.4-.3.8-.5 1.1s-.1.3.1.5c1 .5 2 1 3 1.6a26 26 0 0 1 5.6 4.1 12 12 0 0 1 2.6 3.8 6 6 0 0 1 .4 3.7 6.2 6.2 0 0 1-1.3 2.5 11.17 11.17 0 0 1-3.1 2.7 24 24 0 0 1-6.9 2.7 33.4 33.4 0 0 1-3.8.7h-.2a.14.14 0 0 0-.2.2v.2a34.93 34.93 0 0 1 0 5.6 20.66 20.66 0 0 1-1.4 6.2 9.62 9.62 0 0 1-2 3.1 5.5 5.5 0 0 1-4.3 1.8h-.4l-1.4-.3a17.17 17.17 0 0 1-6.7-3.9 33.2 33.2 0 0 1-4.5-4.9c-.3-.3-.2-.3-.6-.1a36.65 36.65 0 0 1-4.4 2.6 22.38 22.38 0 0 1-5.9 2 12.66 12.66 0 0 1-2.8.2h-.2l-1.5-.2a5.35 5.35 0 0 1-2-.9 6.1 6.1 0 0 1-2.1-3.1 13.38 13.38 0 0 1-.5-5.4 24.42 24.42 0 0 1 .74-4.2 35.12 35.12 0 0 1 1.62-4.8c.1-.4.1-.4-.2-.5a36.82 36.82 0 0 1-3.7-2.2 24.52 24.52 0 0 1-4.9-4 11.43 11.43 0 0 1-2.4-3.7 5.64 5.64 0 0 1 1-5.9 10.6 10.6 0 0 1 2.8-2.3 22 22 0 0 1 5.5-2.3 36.94 36.94 0 0 1 5.6-1.2c.3 0 .3 0 .3-.3a36 36 0 0 1 .05-6 21.74 21.74 0 0 1 1.25-5.7 10.53 10.53 0 0 1 1.8-3.1 5.6 5.6 0 0 1 4.4-2.1c.1 0 .3.1.5 0zm9.95 42c.52.07 1 .1 1.56.18a.5.5 0 0 0 .5-.18 79.3 79.3 0 0 0 5.7-6.63c.6-.7 1.1-1.44 1.6-2.15a.54.54 0 0 0 .1-.54 82 82 0 0 0-4-10.7.5.5 0 0 0-.3-.3c-2.2-.53-4.4-1-6.6-1.33-1.5-.24-3.1-.42-4.7-.6a.48.48 0 0 0-.4.23q-1.7 1.8-3.3 3.72-2 2.4-3.9 5a.64.64 0 0 0-.1.64 94.85 94.85 0 0 0 4 10.6.6.6 0 0 0 .5.3c1.9.4 3.8.8 6 1.2 1.1.1 2.4.2 3.8.4zm17-16c-.25.48-.5 1-.76 1.45a63.7 63.7 0 0 1-3.5 5.64.86.86 0 0 0-.2.8 65.62 65.62 0 0 1 1.6 8.07 1.55 1.55 0 0 1 0 .2c0 .2.1.2.2.2l2-.3a25.48 25.48 0 0 0 6.3-1.9 11.86 11.86 0 0 0 3-1.9 4.87 4.87 0 0 0 1.3-1.7 2.6 2.6 0 0 0 .1-1.5 5.8 5.8 0 0 0-1-2.2 15 15 0 0 0-3.1-3.1 30.74 30.74 0 0 0-5.7-3.5l-.4-.1c-.2 0-.2.1-.2.2zm-9.6 33.25a2.73 2.73 0 0 0 1.88-.88 6.8 6.8 0 0 0 1.44-2.36 17 17 0 0 0 1-4.18 33.06 33.06 0 0 0 .12-6.2c0-.3-.1-.32-.4-.3-1.7.07-3.4.07-5 0-1.1 0-2.3-.14-3.4-.22a.56.56 0 0 0-.5.18 68 68 0 0 1-5.1 4.6l-1.3 1c-.2.1-.2.18 0 .3a26.24 26.24 0 0 0 6.8 6.58 10.47 10.47 0 0 0 2.7 1.25c.2.06.4.1.7.16a3.6 3.6 0 0 0 .8.07zm-30.2-8.37A6.7 6.7 0 0 0 616 314a2.83 2.83 0 0 0 2 1.52 7.8 7.8 0 0 0 3 0 19.12 19.12 0 0 0 4.8-1.64 33.33 33.33 0 0 0 4.3-2.5c.26-.17.27-.14.08-.44a64.3 64.3 0 0 1-4-7.27.62.62 0 0 0-.46-.37c-1.7-.43-3.35-.94-5-1.5-1-.36-2-.74-3-1.14-.23-.1-.23-.1-.33.13q-.6 1.3-1.1 2.8a28.7 28.7 0 0 0-1 3.9 15.38 15.38 0 0 0 0 4zm40.93-40.18a6.1 6.1 0 0 0-.5-1.87 2.74 2.74 0 0 0-1.9-1.56 7.5 7.5 0 0 0-3.1 0 18.66 18.66 0 0 0-4.7 1.5 33.6 33.6 0 0 0-4.75 2.64l-.1.06c-.2.14-.2.15-.06.35l1 1.6q1.7 2.76 3.1 5.67a.62.62 0 0 0 .45.37c1.47.4 2.92.9 4.36 1.4q1.78.6 3.52 1.3c.2.1.22.1.32-.1a33 33 0 0 0 1.2-3.1 25.72 25.72 0 0 0 1-3.8 14.16 14.16 0 0 0 .15-4.2zm-34.7 5.3v.5s0 .24.28.24l1.46-.1c1.73-.1 3.45 0 5.18 0 .6 0 1.2 0 1.8.1a.45.45 0 0 0 .38-.2q1.53-1.6 3.15-3t3.1-2.6c.14-.1.17-.2.06-.3a28.53 28.53 0 0 0-6.3-6.3 10.78 10.78 0 0 0-2.9-1.5 4.73 4.73 0 0 0-1.9-.3 2.5 2.5 0 0 0-1.5.6 6 6 0 0 0-1.6 2.1 16 16 0 0 0-1.2 4 31.35 31.35 0 0 0-.3 6.5zM606.3 288a7.15 7.15 0 0 0 1.32 2.43 17.66 17.66 0 0 0 3.45 3.27 32.27 32.27 0 0 0 4.93 3c.25.12.23.2.4-.14a64 64 0 0 1 4.3-7.06.75.75 0 0 0 .12-.7 65.43 65.43 0 0 1-1.65-7.86 1.48 1.48 0 0 1 0-.17c0-.17-.08-.2-.25-.18-.56 0-1.13.1-1.7.2a27.82 27.82 0 0 0-5.93 1.6 13.55 13.55 0 0 0-3.4 1.8 5.65 5.65 0 0 0-1.4 1.5 2.67 2.67 0 0 0-.4 1 3.1 3.1 0 0 0 .1 1.2zm12.56 10a57.7 57.7 0 0 0 5.83 2c-1-2.45-2-4.86-2.8-7.33a44 44 0 0 0-3.1 5.33zm13.86 11.52a60.45 60.45 0 0 0 4.67-4c-2.6-.37-5.2-.78-7.7-1.32a57.84 57.84 0 0 0 3 5.27zm17-6.2c-.27-2-.66-4-1.13-6.07-1.6 2.1-3.3 4.07-5 6a57.44 57.44 0 0 0 6 0zm-7.94-24.08c.08-.1 0-.18 0-.26q-1.3-2.45-2.8-4.77c-.07-.1-.12-.2-.28 0-1.5 1.2-3 2.5-4.33 3.8v.1c2.4.3 4.9.7 7.36 1.2zm-15.63 1c-1.23 0-2.46 0-3.68.07-.5 0-.5 0-.42.6.25 1.7.58 3.4 1 5.1l.1.3c1.57-2 3.17-4 4.86-5.9-.7 0-1.3-.1-1.9-.1zm23.7 10.24c1-1.53 1.86-3.1 2.68-4.7l.07-.13c.08-.13 0-.2-.1-.26l-1.07-.5c-1.3-.5-2.64-1-4-1.4a1.08 1.08 0 0 0-.43-.1c.5 1.2 1 2.3 1.4 3.5s.85 2.3 1.24 3.5c.08-.1.1-.2.15-.3z" class="cls-3"/><path d="M634.9 297.45a5.87 5.87 0 1 0-4.87-6.7 5.86 5.86 0 0 0 4.86 6.7z" class="cls-3"/><path d="M358.46 801.4l-.34-.35h40.84v.35h182.17l-.35-.35h79.05v.35H842l-.23-.23h51.64v.23h120.7l-.2-.23h19v.23h120.7l-.3-.35h40.8v.35h182.2l-181.8-189.72-.2.2-.1-.15v-.05.02l-.4-.38-63.1 58.94 1-.14-54.7 51.08-43.5-45.43-.2.24v-.2l-73.4 68.6-65.7-68.5-.3.3v-.2L803 760.6 660.5 611.8l-.26.2-.17-.1v-.04l-.04.03-.37-.4-63.14 58.9.9-.2-74.9 69.9-123-128.4-.22.2-.12-.1v-.1h-.03l-.35-.4-63.14 58.9 1-.2-54.73 51.1" class="cls-4 cls-3"/><path d="M850.06 650.57l-86.14-93.6L718.8 606l-58.03-63.05-54.6 59.33-41.75-45.34-86.14 93.6 371.78.03z" class="cls-5"/><path d="M0 0h1440v900H0z" class="cls-6"/></svg>